<svg width="54" height="50" viewBox="0 0 54 50" fill="none" xmlns="http://www.w3.org/2000/svg">
<path d="M28.2644 0C29.4001 0.196219 30.5546 0.327032 31.6676 0.601738C34.4878 1.29748 36.9373 2.6272 39.0468 4.49387C39.1332 4.57023 39.2111 4.6545 39.2972 4.73724C36.1896 6.27657 36.0621 9.13315 37.0106 10.7762C37.6749 11.9274 38.6746 12.6879 40.0357 13.0314C41.3968 13.3748 42.6702 13.1181 43.9061 12.4412C44.3832 14.143 44.4492 15.818 44.3851 17.5414H9.62015C9.53704 15.8448 9.61555 14.1597 10.089 12.4388C11.5345 13.2425 13.0185 13.4265 14.5544 12.8504C15.6527 12.4382 16.4599 11.719 17.0075 10.7382C17.9462 9.05619 17.7435 6.23824 14.693 4.73359C16.1052 3.41558 17.7557 2.33677 19.5698 1.54602C21.4125 0.739852 23.3479 0.242156 25.3782 0.077575C25.4981 0.0678401 25.6148 0.0264667 25.733 0H28.2644ZM27.0222 4.39561C24.4215 4.38618 22.2756 6.34259 22.2542 8.74193C22.2332 11.1726 24.3588 13.1713 26.9752 13.1807C29.5769 13.1902 31.7215 11.2338 31.7429 8.83381C31.7646 6.40161 29.6409 4.40504 27.0222 4.39561Z" fill="#FD090D"/>
<path d="M54 25.3879C53.5883 26.2093 52.8928 26.4755 51.9256 26.4746C35.3019 26.4569 18.6787 26.4527 2.05604 26.4618C1.86286 26.4618 1.6687 26.4688 1.47651 26.4548C0.811558 26.4061 0.284263 26.0143 0.0812299 25.4281C-0.119832 24.8482 0.0510049 24.2176 0.608853 23.8598C2.32598 22.759 4.05779 21.6774 5.80427 20.6151C5.98628 20.504 6.27177 20.5098 6.5093 20.5095C19.5126 20.5049 32.5163 20.5308 45.5193 20.4751C47.2644 20.4678 48.7668 20.7158 50.1236 21.7741C50.9515 22.42 51.9375 22.8891 52.8081 23.492C53.2549 23.8014 53.6048 24.2313 53.9984 24.6067L54 25.3879Z" fill="#FD090D"/>
<path d="M19.0642 32.8115C22.9152 37.9981 31.0648 37.996 34.9273 32.8115C35.6935 33.8075 36.6104 34.6426 37.7074 35.3061C37.8168 35.3724 37.874 35.5455 37.9091 35.6794C39.006 39.8445 40.098 44.0105 41.1852 48.1774C41.4293 49.1187 40.72 49.9513 39.6766 49.9915C39.2909 50.0064 38.9039 49.9954 38.5172 49.9954C30.5418 49.9954 22.5662 49.997 14.5905 50C13.8612 50 13.2435 49.812 12.9479 49.1713C12.8066 48.8653 12.754 48.461 12.8362 48.1394C13.894 43.9993 14.9825 39.8648 16.0689 35.732C16.1083 35.5826 16.1675 35.3894 16.2887 35.3146C17.3752 34.6488 18.3167 33.7996 19.0642 32.8115Z" fill="#FD090D"/>
<path d="M5.12158 29.406H17.2044C16.9918 31.5173 14.2476 33.6395 11.5713 33.7755C8.55935 33.9297 5.67615 31.9964 5.12158 29.406Z" fill="#FD090D"/>
<path d="M33.0439 29.4127C32.6244 31.8099 29.8262 33.8044 26.9434 33.7843C24.118 33.7648 21.3393 31.7461 20.9552 29.4127H33.0439Z" fill="#FD090D"/>
<path d="M36.7737 29.4135H48.8637C48.4695 31.7729 45.677 33.7838 42.8224 33.7847C39.9677 33.7856 37.1828 31.7815 36.7737 29.4135Z" fill="#FD090D"/>
<path d="M14.3405 8.77502C14.3477 9.56598 13.6424 10.2371 12.7872 10.2511C11.9143 10.2654 11.1738 9.58545 11.1803 8.77594C11.1869 7.98498 11.9054 7.32513 12.7596 7.32483C13.6138 7.32452 14.3329 7.98406 14.3405 8.77502Z" fill="#FD090D"/>
<path d="M42.8167 8.80633C42.8049 9.59729 42.0835 10.2547 41.2296 10.2511C40.355 10.2471 39.6313 9.55379 39.6569 8.74458C39.6819 7.95514 40.4178 7.30746 41.27 7.3248C42.1222 7.34214 42.8299 8.01568 42.8167 8.80633Z" fill="#FD090D"/>
<path d="M28.5785 8.80602C28.5673 9.59698 27.8455 10.2544 26.992 10.251C26.1175 10.2474 25.3934 9.55439 25.4187 8.74487C25.4436 7.95573 26.1789 7.30776 27.0314 7.32479C27.884 7.34183 28.59 8.01536 28.5785 8.80602Z" fill="#FD090D"/>
</svg>
