<svg width="337" height="119" viewBox="0 0 337 119" fill="none" xmlns="http://www.w3.org/2000/svg">
<mask id="path-1-inside-1_11_72" fill="white">
<path d="M168.314 0C211.885 0 247.585 24.2359 250.789 54.99C250.887 55.9284 251.6 56.7017 252.533 56.8404C290.935 62.5486 320.932 72.0413 336.044 83.5219C337.032 84.2725 337.037 85.7233 336.049 86.474C311.077 105.451 245.439 119 168.394 119C168.377 119 168.361 118.999 168.345 118.999C168.335 118.999 168.324 119 168.314 119C168.268 119 168.222 118.999 168.176 118.999C91.2246 118.974 25.6863 105.433 0.738164 86.474C-0.24966 85.7234 -0.244453 84.2725 0.743473 83.5219C15.8343 72.0572 45.769 62.5752 84.0942 56.8645C85.0275 56.7254 85.7409 55.9517 85.8382 55.013C89.0267 24.2481 124.734 0.000141516 168.314 0Z"/>
</mask>
<path d="M168.314 0C211.885 0 247.585 24.2359 250.789 54.99C250.887 55.9284 251.6 56.7017 252.533 56.8404C290.935 62.5486 320.932 72.0413 336.044 83.5219C337.032 84.2725 337.037 85.7233 336.049 86.474C311.077 105.451 245.439 119 168.394 119C168.377 119 168.361 118.999 168.345 118.999C168.335 118.999 168.324 119 168.314 119C168.268 119 168.222 118.999 168.176 118.999C91.2246 118.974 25.6863 105.433 0.738164 86.474C-0.24966 85.7234 -0.244453 84.2725 0.743473 83.5219C15.8343 72.0572 45.769 62.5752 84.0942 56.8645C85.0275 56.7254 85.7409 55.9517 85.8382 55.013C89.0267 24.2481 124.734 0.000141516 168.314 0Z" fill="#C381F6"/>
<path d="M168.314 0L168.314 -11L168.314 -11L168.314 0ZM168.394 119L168.394 130H168.394V119ZM168.345 118.999L168.346 107.999L168.342 107.999L168.345 118.999ZM168.314 119L168.314 130H168.314V119ZM168.176 118.999L168.189 107.999L168.179 107.999L168.176 118.999ZM84.0942 56.8645L85.7154 67.7443L84.0942 56.8645ZM85.8382 55.013L96.7795 56.147L85.8382 55.013ZM0.738164 86.474L-5.91736 95.2321L0.738164 86.474ZM0.743473 83.5219L-5.91087 74.763L0.743473 83.5219ZM336.044 83.5219L342.698 74.7629L336.044 83.5219ZM336.049 86.474L329.393 77.7159L336.049 86.474ZM250.789 54.99L239.848 56.1298L250.789 54.99ZM252.533 56.8404L254.151 45.96L252.533 56.8404ZM168.314 0V11C188.137 11 205.777 16.5267 218.564 25.0989C231.396 33.7022 238.67 44.8259 239.848 56.1298L250.789 54.99L261.73 53.8502C259.703 34.4 247.525 18.0287 230.814 6.82549C214.057 -4.40873 192.062 -11 168.314 -11V0ZM252.533 56.8404L250.916 67.7209C289.072 73.3925 316.646 82.5993 329.389 92.2809L336.044 83.5219L342.698 74.7629C325.218 61.4833 292.799 51.7048 254.151 45.96L252.533 56.8404ZM336.049 86.474L329.393 77.7159C318.992 85.6206 298.417 93.3739 269.618 99.0617C241.263 104.662 206.317 108 168.394 108V119V130C207.516 130 243.911 126.564 273.88 120.645C303.404 114.814 328.135 106.304 342.705 95.2321L336.049 86.474ZM168.394 119L168.394 108C168.446 108 168.493 108 168.532 108.001C168.57 108.001 168.603 108.002 168.629 108.003C168.653 108.003 168.673 108.004 168.684 108.004C168.694 108.004 168.702 108.005 168.699 108.004C168.699 108.004 168.686 108.004 168.672 108.004C168.657 108.003 168.633 108.003 168.605 108.002C168.575 108.001 168.538 108.001 168.496 108C168.453 107.999 168.402 107.999 168.346 107.999L168.345 118.999L168.344 129.999C168.291 129.999 168.245 129.999 168.206 129.998C168.167 129.998 168.134 129.997 168.109 129.996C168.085 129.996 168.065 129.995 168.054 129.995C168.044 129.995 168.036 129.994 168.039 129.995C168.04 129.995 168.052 129.995 168.066 129.995C168.081 129.996 168.105 129.996 168.134 129.997C168.163 129.998 168.2 129.998 168.243 129.999C168.286 130 168.337 130 168.394 130L168.394 119ZM168.345 118.999L168.342 107.999C168.252 107.999 168.172 108 168.106 108.002C168.039 108.003 167.982 108.005 167.938 108.006C167.895 108.008 167.859 108.01 167.838 108.011C167.827 108.011 167.817 108.011 167.812 108.012C167.809 108.012 167.806 108.012 167.805 108.012C167.803 108.012 167.802 108.012 167.802 108.012C167.801 108.012 167.804 108.012 167.808 108.012C167.813 108.012 167.821 108.011 167.831 108.011C167.85 108.01 167.883 108.009 167.925 108.007C167.966 108.006 168.021 108.004 168.085 108.002C168.149 108.001 168.227 108 168.314 108V119V130C168.405 130 168.485 129.999 168.551 129.997C168.618 129.996 168.675 129.994 168.719 129.993C168.763 129.991 168.799 129.99 168.821 129.989C168.832 129.988 168.841 129.988 168.847 129.987C168.853 129.987 168.857 129.987 168.857 129.987C168.859 129.987 168.855 129.987 168.851 129.987C168.847 129.987 168.839 129.988 168.829 129.988C168.81 129.989 168.777 129.99 168.736 129.992C168.695 129.993 168.64 129.995 168.576 129.997C168.512 129.998 168.435 129.999 168.348 129.999L168.345 118.999ZM168.314 119L168.314 108C168.339 108 168.356 108 168.363 108C168.368 108 168.37 108 168.358 108C168.35 108 168.326 108 168.3 108C168.273 107.999 168.234 107.999 168.189 107.999L168.176 118.999L168.163 129.999C168.141 129.999 168.125 129.999 168.121 129.999C168.118 129.999 168.117 129.999 168.132 129.999C168.143 129.999 168.168 129.999 168.197 130C168.226 130 168.267 130 168.314 130L168.314 119ZM168.176 118.999L168.179 107.999C130.303 107.986 95.4044 104.644 67.0895 99.0455C38.3303 93.359 17.7851 85.6127 7.39369 77.716L0.738164 86.474L-5.91736 95.2321C8.6394 106.294 33.3374 114.798 62.8222 120.628C92.7512 126.545 129.098 129.986 168.172 129.999L168.176 118.999ZM0.743473 83.5219L7.39782 92.2809C20.1227 82.6136 47.6371 73.4183 85.7154 67.7443L84.0942 56.8645L82.473 45.9846C43.9009 51.7322 11.5458 61.5008 -5.91087 74.763L0.743473 83.5219ZM85.8382 55.013L96.7795 56.147C97.9515 44.8396 105.223 33.7122 118.056 25.1054C130.843 16.5295 148.487 11.0001 168.314 11L168.314 0L168.314 -11C144.561 -10.9999 122.561 -4.40536 105.802 6.83405C89.0898 18.0425 76.9134 34.4215 74.8968 53.8791L85.8382 55.013ZM84.0942 56.8645L85.7154 67.7443C91.8109 66.836 96.1851 61.8821 96.7795 56.147L85.8382 55.013L74.8968 53.8791C75.2966 50.0212 78.2441 46.6147 82.473 45.9846L84.0942 56.8645ZM0.738164 86.474L7.39369 77.716C12.2437 81.4017 12.1588 88.6639 7.39782 92.2809L0.743473 83.5219L-5.91087 74.763C-12.6477 79.881 -12.7431 90.0451 -5.91736 95.2321L0.738164 86.474ZM336.044 83.5219L329.389 92.2809C324.629 88.6643 324.543 81.402 329.393 77.7159L336.049 86.474L342.705 95.2321C349.531 90.0446 349.434 79.8806 342.698 74.7629L336.044 83.5219ZM250.789 54.99L239.848 56.1298C240.446 61.8639 244.821 66.8149 250.916 67.7209L252.533 56.8404L254.151 45.96C258.379 46.5885 261.328 49.9929 261.73 53.8502L250.789 54.99Z" fill="#AB07A6" mask="url(#path-1-inside-1_11_72)"/>
<path d="M89 62C89 62 142.235 75.7872 173.5 74.5C204.765 73.2128 248 62 248 62" stroke="#AB07A6" stroke-width="11"/>
</svg>
