<svg width="56" height="56" viewBox="0 0 56 56" fill="none" xmlns="http://www.w3.org/2000/svg">
<path d="M27.979 10.0004C34.9407 10.0004 41.9026 10.0013 48.8646 10.0031C50.951 10.0031 52.3809 11.7287 51.91 13.6847C51.6218 14.8796 50.8398 15.6347 49.6309 15.904C49.2919 15.9803 48.9338 15.9979 48.5844 15.9979C34.8485 16.0024 21.1123 15.9996 7.3758 15.9895C6.82695 15.9895 6.23873 15.9029 5.73766 15.693C4.44848 15.1532 3.78918 13.7771 4.06016 12.4063C4.33038 11.045 5.47662 10.0684 6.88237 10.0062C7.11628 9.99586 7.35095 10.0016 7.58563 10.0016C14.383 10.0003 21.1808 9.99993 27.979 10.0004Z" fill="black"/>
<path d="M27.9609 44.9954C21.0249 44.9954 14.089 44.9947 7.1533 44.9932C5.05577 44.9916 3.62953 43.5776 4.08495 41.9461C4.36386 40.9468 5.14327 40.3187 6.34715 40.0867C6.70743 40.0175 7.09026 40.0063 7.46315 40.0063C21.1708 40.0023 34.8785 40.0002 48.5862 40C49.5085 40 50.3631 40.1374 51.0413 40.6945C51.9399 41.4322 52.2295 42.3197 51.8135 43.3132C51.3875 44.3289 50.472 44.8739 49.1895 44.9869C48.9346 45.0094 48.6744 44.9961 48.4169 44.9961L27.9609 44.9954Z" fill="black"/>
<path d="M28.0065 26.0009C34.9191 26.0009 41.8318 26.0009 48.7445 26.0009C50.5342 26.0009 51.7175 26.8057 51.9674 28.167C52.2188 29.5392 50.9862 30.8577 49.331 30.9818C49.1445 30.9958 48.9566 31 48.7693 31C34.9205 31 21.0719 31 7.22332 31C5.45579 31 4.26445 30.1684 4.02833 28.8045C3.79602 27.4611 5.02175 26.1496 6.63605 26.0217C6.96159 25.9961 7.29133 26.0003 7.61916 26.0003C14.4154 26.0003 21.2112 26.0005 28.0065 26.0009Z" fill="black"/>
</svg>
