<svg width="55" height="43" viewBox="0 0 55 43" fill="none" xmlns="http://www.w3.org/2000/svg">
<path d="M24.627 1.42775C25.8841 -0.475838 28.8203 -0.475997 30.0772 1.42775L54.212 37.9678C55.5453 39.9867 54.0078 42.6033 51.4873 42.6035H3.21586C0.695957 42.6034 -0.842163 39.9868 0.491255 37.9678L24.627 1.42775ZM27.3545 32.2315C25.9265 32.2315 24.7686 33.3239 24.7686 34.6719C24.7686 36.0199 25.9265 37.1123 27.3545 37.1123C28.7824 37.1121 29.9395 36.0197 29.9395 34.6719C29.9395 33.3241 28.7824 32.2317 27.3545 32.2315ZM30.4776 12.9512C30.003 9.04722 24.0798 9.46953 24.2256 13.3906L25.3135 27.1807C25.3519 27.666 25.5831 28.1201 25.961 28.4512C26.3389 28.7823 26.836 28.9658 27.3516 28.9658V28.9639C27.867 28.9638 28.3634 28.7802 28.7413 28.4492C29.1192 28.1181 29.3503 27.6641 29.3887 27.1787L30.4776 13.3906C30.4883 13.2445 30.4883 13.0973 30.4776 12.9512Z" fill="#EAC703"/>
</svg>
