<svg width="56" height="56" viewBox="0 0 56 56" fill="none" xmlns="http://www.w3.org/2000/svg">
<path d="M28 30.9487L19.057 39.519C18.7224 39.8397 18.2966 40 17.7795 40C17.2624 40 16.8365 39.8397 16.5019 39.519C16.1673 39.1983 16 38.7902 16 38.2947C16 37.7991 16.1673 37.391 16.5019 37.0703L25.4449 28.5L16.5019 19.9297C16.1673 19.609 16 19.2009 16 18.7053C16 18.2098 16.1673 17.8016 16.5019 17.481C16.8365 17.1603 17.2624 17 17.7795 17C18.2966 17 18.7224 17.1603 19.057 17.481L28 26.0513L36.943 17.481C37.2776 17.1603 37.7034 17 38.2205 17C38.7376 17 39.1635 17.1603 39.4981 17.481C39.8327 17.8016 40 18.2098 40 18.7053C40 19.2009 39.8327 19.609 39.4981 19.9297L30.5551 28.5L39.4981 37.0703C39.8327 37.391 40 37.7991 40 38.2947C40 38.7902 39.8327 39.1983 39.4981 39.519C39.1635 39.8397 38.7376 40 38.2205 40C37.7034 40 37.2776 39.8397 36.943 39.519L28 30.9487Z" fill="#D9D9D9" fill-opacity="0.62"/>
</svg>
