<svg width="38" height="44" viewBox="0 0 38 44" fill="none" xmlns="http://www.w3.org/2000/svg">
<path d="M1.07375 43.411C-0.195403 42.7042 -0.364951 41.2854 0.7014 40.282C2.10412 38.9628 3.5142 37.6505 4.90711 36.3226C5.30236 35.9459 5.74149 35.7728 6.30874 35.7738C12.0821 35.7837 17.8555 35.7837 23.629 35.7738C24.1761 35.7738 24.6155 35.9239 25.0007 36.2893C26.4391 37.6549 27.892 39.0066 29.3348 40.369C29.9034 40.9069 30.1056 42.0906 29.6815 42.7252C29.4961 43.0033 29.1462 43.1844 28.8708 43.4097H24.7194C24.3958 43.1892 24.0447 42.9966 23.7544 42.7439C23.1616 42.2253 22.6161 41.6583 22.0186 41.1448C21.8433 40.9939 21.5582 40.8794 21.3227 40.8787C17.0885 40.8628 12.8551 40.8628 8.62244 40.8787C8.38692 40.8787 8.10153 40.9934 7.92653 41.144C7.3293 41.6577 6.7844 42.2253 6.1918 42.7444C5.9015 42.9984 5.54986 43.1908 5.22603 43.4102L1.07375 43.411Z" fill="#11FF00"/>
<path d="M20.3861 30.6506C20.3861 28.8835 20.4095 27.161 20.3801 25.4392C20.3468 23.509 19.4358 22.0154 17.667 21.0343C14.3764 19.2055 10.1129 21.1897 9.63043 24.7529C9.61543 24.8635 9.59254 24.9731 9.55628 25.1821C9.35702 24.9647 9.20356 24.8077 9.06236 24.6417C3.46184 18.052 3.92523 8.82874 10.1603 2.76221C10.8876 2.05434 11.6413 2.04512 12.3863 2.74351C15.7162 5.86898 19.0437 8.99657 22.3688 12.1263C22.4945 12.2444 22.5845 12.396 22.7066 12.5514C23.421 11.8781 24.0586 11.2988 24.6607 10.6886C24.7611 10.5861 24.7684 10.33 24.7133 10.1784C24.0076 8.23561 24.9197 6.20882 26.8796 5.40671C28.39 4.78797 30.1419 5.0789 31.3156 6.143C32.5035 7.2217 32.8819 8.82464 32.292 10.277C31.7136 11.7002 30.2899 12.6649 28.6394 12.6726C28.1111 12.6749 27.5834 12.4969 27.0524 12.4211C26.9131 12.4011 26.7117 12.4049 26.6244 12.4825C25.9702 13.0644 25.3373 13.6673 24.6005 14.3544C24.7818 14.4732 24.9497 14.5524 25.0762 14.6709C28.3761 17.7643 31.6733 20.8604 34.9677 23.9592C35.837 24.7759 35.8329 25.4377 34.9328 26.2298C31.1423 29.5666 26.6462 31.0614 21.4671 30.7672C21.1259 30.7477 20.7857 30.6944 20.3861 30.6506Z" fill="#11FF00"/>
<path d="M38 8.59637C37.9471 11.3182 37.0503 13.4111 35.2469 15.151C34.7942 15.5864 34.1732 15.6781 33.6349 15.4217C33.1096 15.1718 32.7898 14.6393 32.943 14.0795C33.027 13.7722 33.2429 13.4667 33.4762 13.2254C36.5079 10.0879 35.5942 5.17614 31.6074 3.23976C29.0767 2.01047 26.0194 2.42382 23.8564 4.26237C23.6018 4.47878 23.2646 4.66701 22.9348 4.73488C22.3479 4.8555 21.8172 4.55381 21.5594 4.06748C21.2928 3.56219 21.3827 3.00337 21.8279 2.58798C23.2919 1.22116 25.052 0.381919 27.0887 0.0996953C32.058 -0.589474 36.633 2.35825 37.752 6.96552C37.9049 7.59348 37.9485 8.24603 38 8.59637Z" fill="#11FF00"/>
<path d="M12.2634 33.2067V29.0766C12.2634 27.8914 12.2588 26.7059 12.2634 25.5206C12.2708 24.0286 13.4263 22.9007 14.9456 22.8923C16.492 22.8838 17.6715 24.0083 17.6753 25.5196C17.6832 27.9889 17.6775 30.4585 17.6775 32.9279V33.2067H12.2634Z" fill="#11FF00"/>
</svg>
