<svg width="46" height="62" viewBox="0 0 46 62" fill="none" xmlns="http://www.w3.org/2000/svg">
<path d="M1.10485 61.1791C-0.201063 60.4518 -0.375521 58.9919 0.721715 57.9594C2.16506 56.602 3.61598 55.2518 5.04923 53.8854C5.45593 53.4978 5.90778 53.3196 6.49146 53.3207C12.432 53.3309 18.3727 53.3309 24.3134 53.3207C24.8763 53.3207 25.3285 53.4751 25.7248 53.8511C27.2049 55.2562 28.6998 56.6471 30.1844 58.049C30.7695 58.6024 30.9776 59.8204 30.5412 60.4734C30.3504 60.7596 29.9903 60.9459 29.707 61.1778H25.4353C25.1024 60.9509 24.7411 60.7527 24.4424 60.4926C23.8324 59.959 23.2711 59.3756 22.6563 58.8472C22.476 58.692 22.1826 58.5742 21.9403 58.5734C17.5835 58.5571 13.2275 58.5571 8.87217 58.5734C8.62983 58.5734 8.33617 58.6915 8.1561 58.8464C7.54157 59.375 6.98089 59.959 6.37113 60.4931C6.07242 60.7546 5.7106 60.9525 5.37739 61.1783L1.10485 61.1791Z" fill="#FF8400"/>
<path d="M20.9765 48.0491C20.9765 46.2308 21.0007 44.4584 20.9704 42.6868C20.9361 40.7006 19.9988 39.1638 18.1788 38.1542C14.7928 36.2724 10.4058 38.3142 9.90938 41.9805C9.89395 42.0944 9.87039 42.2072 9.83309 42.4222C9.62806 42.1985 9.47015 42.0369 9.32486 41.8662C3.56213 35.0856 4.03894 25.5952 10.4546 19.3529C11.2029 18.6246 11.9785 18.6151 12.745 19.3337C16.1714 22.5497 19.5953 25.7679 23.0167 28.9883C23.146 29.1097 23.2386 29.2657 23.3643 29.4257C24.0994 28.7329 24.7554 28.1368 25.375 27.5089C25.4782 27.4035 25.4858 27.1399 25.4291 26.9839C24.703 24.9849 25.6415 22.8994 27.6581 22.074C29.2123 21.4374 31.0149 21.7367 32.2226 22.8317C33.445 23.9416 33.8343 25.591 33.2273 27.0854C32.6321 28.5498 31.1672 29.5424 29.4689 29.5503C28.9253 29.5527 28.3823 29.3696 27.8359 29.2916C27.6926 29.271 27.4853 29.275 27.3956 29.3548C26.7224 29.9535 26.0712 30.5738 25.313 31.2809C25.4995 31.4031 25.6723 31.4846 25.8025 31.6066C29.1979 34.7895 32.5906 37.9753 35.9805 41.1639C36.8749 42.0042 36.8707 42.6852 35.9446 43.5002C32.0443 46.9336 27.418 48.4718 22.0889 48.169C21.7378 48.149 21.3877 48.0942 20.9765 48.0491Z" fill="#FF8400"/>
<path d="M12.6186 50.6792V46.4294C12.6186 45.2099 12.6138 43.99 12.6186 42.7705C12.6261 41.2352 13.8151 40.0747 15.3785 40.066C16.9697 40.0573 18.1833 41.2144 18.1872 42.7694C18.1953 45.3103 18.1895 47.8514 18.1895 50.3922V50.6792H12.6186Z" fill="#FF8400"/>
<path d="M40.6949 23.6976C39.9597 23.6975 39.2516 23.4647 38.7128 23.0459C38.1739 22.6272 37.844 22.0534 37.7892 21.4396L36.2378 4.00057C36.0293 -0.958913 44.4758 -1.49297 45.1521 3.44489C45.1674 3.6299 45.1674 3.81556 45.1521 4.00057L43.6007 21.4372C43.5459 22.051 43.216 22.6248 42.6771 23.0435C42.1382 23.4623 41.4302 23.6951 40.6949 23.6952V23.6976Z" fill="#FF8400"/>
<path d="M40.6985 34C42.7349 34 44.3857 32.618 44.3857 30.9133C44.3857 29.2086 42.7349 27.8267 40.6985 27.8267C38.6622 27.8267 37.0114 29.2086 37.0114 30.9133C37.0114 32.618 38.6622 34 40.6985 34Z" fill="#FF8400"/>
</svg>
