<svg width="111" height="93" viewBox="0 0 111 93" fill="none" xmlns="http://www.w3.org/2000/svg">
<g clip-path="url(#clip0_10_65)">
<path d="M104.474 92.89H6.52624C1.41286 92.89 -1.70799 87.2405 0.99773 82.8804L49.9716 3.97311C52.5222 -0.138172 58.4794 -0.138172 61.03 3.97311L110.004 82.8804C112.71 87.2405 109.589 92.89 104.474 92.89Z" fill="#FFDF29"/>
<path d="M55.5 63.4411C54.4537 63.4409 53.4462 63.0435 52.6794 62.3284C51.9126 61.6134 51.4432 60.6336 51.3652 59.5855L49.1576 29.8071C48.8609 21.3384 60.8802 20.4265 61.8424 28.8582C61.8642 29.1741 61.8642 29.4912 61.8424 29.8071L59.6348 59.5814C59.5569 60.6295 59.0874 61.6093 58.3206 62.3243C57.5538 63.0394 56.5463 63.4368 55.5 63.437V63.4411Z" fill="black"/>
<path d="M55.5054 81.0333C58.4031 81.0333 60.7522 78.6736 60.7522 75.7626C60.7522 72.8517 58.4031 70.4919 55.5054 70.4919C52.6077 70.4919 50.2587 72.8517 50.2587 75.7626C50.2587 78.6736 52.6077 81.0333 55.5054 81.0333Z" fill="black"/>
</g>
<defs>
<clipPath id="clip0_10_65">
<rect width="111" height="92" fill="white" transform="translate(0 0.890015)"/>
</clipPath>
</defs>
</svg>
