<svg width="64" height="60" viewBox="0 0 64 60" fill="none" xmlns="http://www.w3.org/2000/svg">
<path d="M33.2022 0.655396C34.529 0.888013 35.8776 1.04309 37.1778 1.36875C40.4722 2.19355 43.3337 3.76994 45.798 5.98287C45.899 6.07339 45.9899 6.17329 46.0905 6.27139C42.4603 8.09626 42.3113 11.4827 43.4193 13.4306C44.1953 14.7953 45.3632 15.6969 46.9532 16.1041C48.5432 16.5112 50.0308 16.2069 51.4746 15.4044C52.0318 17.4219 52.109 19.4076 52.0342 21.4507H11.4224C11.3253 19.4393 11.417 17.4417 11.9701 15.4015C13.6587 16.3544 15.3923 16.5725 17.1865 15.8895C18.4695 15.4008 19.4124 14.5482 20.0522 13.3855C21.1487 11.3915 20.9119 8.05082 17.3484 6.26706C18.9981 4.70457 20.9262 3.42563 23.0453 2.4882C25.198 1.53249 27.4589 0.942471 29.8307 0.747361C29.9707 0.73582 30.107 0.686772 30.2451 0.655396H33.2022ZM31.7511 5.86638C28.7131 5.8552 26.2062 8.17452 26.1812 11.0189C26.1567 13.9005 28.6398 16.27 31.6962 16.2811C34.7354 16.2923 37.2408 13.973 37.2657 11.1279C37.2911 8.24449 34.8103 5.87756 31.7511 5.86638Z" fill="#C80303"/>
<path d="M63.266 30.7527C62.7851 31.7265 61.9726 32.042 60.8428 32.041C41.4233 32.02 22.0044 32.015 2.58615 32.0258C2.36048 32.0258 2.13367 32.0341 1.90915 32.0175C1.13237 31.9598 0.516396 31.4953 0.279217 30.8003C0.0443409 30.113 0.243909 29.3653 0.895576 28.9412C2.90149 27.6361 4.92455 26.3539 6.96475 25.0945C7.17737 24.9629 7.51088 24.9698 7.78835 24.9694C22.9786 24.964 38.1692 24.9946 53.359 24.9287C55.3976 24.92 57.1527 25.2139 58.7377 26.4686C59.7049 27.2343 60.8566 27.7904 61.8736 28.5052C62.3956 28.872 62.8043 29.3816 63.2641 29.8266L63.266 30.7527Z" fill="#C80303"/>
<path d="M22.4547 39.5533C26.9534 45.702 36.4736 45.6995 40.9858 39.5533C41.8807 40.7341 42.9519 41.7241 44.2333 42.5106C44.3611 42.5893 44.4279 42.7945 44.469 42.9532C45.7503 47.8909 47.026 52.8297 48.2961 57.7696C48.5812 58.8855 47.7527 59.8725 46.5338 59.9202C46.0832 59.9378 45.6311 59.9248 45.1794 59.9248C35.8626 59.9248 26.5457 59.9266 17.2287 59.9303C16.3767 59.9303 15.6552 59.7074 15.3098 58.9479C15.1448 58.585 15.0833 58.1057 15.1793 57.7245C16.4151 52.8165 17.6866 47.9149 18.9557 43.0156C19.0018 42.8385 19.0709 42.6095 19.2125 42.5207C20.4817 41.7314 21.5815 40.7248 22.4547 39.5533Z" fill="#C80303"/>
<path d="M6.16724 35.5161H20.2821C20.0338 38.019 16.828 40.5349 13.7017 40.6961C10.1832 40.8789 6.81507 38.587 6.16724 35.5161Z" fill="#C80303"/>
<path d="M38.7855 35.524C38.2954 38.3659 35.0267 40.7303 31.659 40.7065C28.3585 40.6835 25.1124 38.2902 24.6638 35.524H38.7855Z" fill="#C80303"/>
<path d="M43.1426 35.525H57.2659C56.8054 38.3222 53.5432 40.7061 50.2085 40.7072C46.8738 40.7082 43.6205 38.3323 43.1426 35.525Z" fill="#C80303"/>
<path d="M16.9366 11.0582C16.9451 11.9959 16.1211 12.7915 15.1221 12.8081C14.1024 12.825 13.2373 12.019 13.245 11.0593C13.2527 10.1216 14.092 9.33935 15.0898 9.33899C16.0877 9.33863 16.9278 10.1205 16.9366 11.0582Z" fill="#C80303"/>
<path d="M50.202 11.0953C50.1881 12.0329 49.3454 12.8123 48.3479 12.808C47.3263 12.8033 46.4808 11.9814 46.5107 11.022C46.5399 10.0862 47.3996 9.31835 48.3951 9.3389C49.3906 9.35946 50.2173 10.1579 50.202 11.0953Z" fill="#C80303"/>
<path d="M33.5691 11.0949C33.5561 12.0326 32.7129 12.8119 31.7158 12.808C30.6942 12.8036 29.8483 11.9821 29.8779 11.0224C29.9071 10.0869 30.766 9.31869 31.7619 9.33889C32.7578 9.35909 33.5826 10.1576 33.5691 11.0949Z" fill="#C80303"/>
</svg>
