<svg width="29" height="33" viewBox="0 0 29 33" fill="none" xmlns="http://www.w3.org/2000/svg">
<path d="M1.21605 32.5638C0.271713 32.0379 0.145558 30.9822 0.938996 30.2356C1.98272 29.254 3.03191 28.2776 4.06833 27.2896C4.36242 27.0093 4.68917 26.8805 5.11124 26.8812C9.407 26.8886 13.7028 26.8886 17.9987 26.8812C18.4058 26.8812 18.7327 26.9929 19.0193 27.2648C20.0896 28.2809 21.1706 29.2866 22.2442 30.3004C22.6673 30.7006 22.8178 31.5813 22.5022 32.0535C22.3643 32.2605 22.1038 32.3952 21.899 32.5629H18.81C18.5693 32.3988 18.308 32.2555 18.092 32.0674C17.6509 31.6816 17.245 31.2597 16.8005 30.8776C16.67 30.7654 16.4579 30.6802 16.2826 30.6796C13.1322 30.6678 9.9822 30.6678 6.83279 30.6796C6.65755 30.6796 6.4452 30.765 6.31498 30.877C5.8706 31.2593 5.46516 31.6816 5.02423 32.0678C4.80822 32.2568 4.54658 32.4 4.30563 32.5633L1.21605 32.5638Z" fill="#14A30A"/>
<path d="M15.5858 23.0693C15.5858 21.7545 15.6032 20.4728 15.5813 19.1917C15.5565 17.7555 14.8787 16.6441 13.5626 15.9141C11.1141 14.5533 7.94182 16.0298 7.58282 18.681C7.57167 18.7633 7.55463 18.8449 7.52766 19.0004C7.37939 18.8386 7.2652 18.7218 7.16014 18.5983C2.99297 13.6951 3.33777 6.83236 7.97711 2.31844C8.51824 1.79174 9.07904 1.78488 9.63335 2.30453C12.111 4.63009 14.5869 6.95723 17.0611 9.28597C17.1546 9.37382 17.2215 9.48662 17.3124 9.60229C17.844 9.10132 18.3184 8.67028 18.7664 8.21618C18.841 8.13996 18.8465 7.9494 18.8055 7.83659C18.2804 6.39103 18.9591 4.88296 20.4174 4.28613C21.5412 3.82575 22.8447 4.04222 23.7181 4.83398C24.602 5.63661 24.8835 6.82931 24.4446 7.90996C24.0142 8.96888 22.9549 9.68671 21.7268 9.69243C21.3337 9.69414 20.9411 9.5617 20.546 9.5053C20.4423 9.49044 20.2924 9.49329 20.2275 9.55103C19.7408 9.98398 19.2698 10.4326 18.7216 10.9438C18.8565 11.0322 18.9814 11.0911 19.0755 11.1793C21.5309 13.481 23.9842 15.7847 26.4355 18.0905C27.0823 18.6982 27.0792 19.1905 26.4095 19.7799C23.5891 22.2627 20.2438 23.375 16.3901 23.156C16.1362 23.1416 15.8831 23.1019 15.5858 23.0693Z" fill="#14A30A"/>
<path d="M28.6917 6.65935C28.6523 8.68459 27.985 10.2418 26.6432 11.5365C26.3063 11.8604 25.8443 11.9286 25.4437 11.7379C25.0529 11.5519 24.8149 11.1557 24.9289 10.7392C24.9914 10.5105 25.152 10.2832 25.3256 10.1037C27.5814 7.76915 26.9016 4.11446 23.9351 2.67366C22.0521 1.75899 19.7773 2.06655 18.1679 3.43456C17.9784 3.59558 17.7275 3.73564 17.4821 3.78613C17.0455 3.87589 16.6506 3.65141 16.4587 3.28954C16.2603 2.91357 16.3273 2.49778 16.6585 2.18869C17.7478 1.17169 19.0574 0.547235 20.5729 0.337242C24.2704 -0.175547 27.6745 2.01776 28.5071 5.44588C28.6209 5.91313 28.6533 6.39867 28.6917 6.65935Z" fill="#14A30A"/>
<path d="M9.54188 24.9711V21.898C9.54188 21.0161 9.53843 20.134 9.54188 19.2521C9.54735 18.1419 10.4071 17.3027 11.5376 17.2964C12.6882 17.2901 13.5659 18.1269 13.5687 19.2513C13.5746 21.0887 13.5703 22.9262 13.5703 24.7636V24.9711H9.54188Z" fill="#14A30A"/>
</svg>
