<svg width="56" height="44" viewBox="0 0 56 44" fill="none" xmlns="http://www.w3.org/2000/svg">
<path d="M25.5364 2C26.7935 0.0964079 29.7297 0.0962492 30.9866 2L55.1214 38.54C56.4548 40.559 54.9172 43.1755 52.3968 43.1758H4.12531C1.60541 43.1757 0.0672857 40.5591 1.4007 38.54L25.5364 2ZM28.264 32.8037C26.8359 32.8037 25.678 33.8962 25.678 35.2441C25.6781 36.5921 26.8359 37.6846 28.264 37.6846C29.6918 37.6843 30.8489 36.592 30.8489 35.2441C30.8489 33.8963 29.6918 32.8039 28.264 32.8037ZM31.387 13.5234C30.9125 9.61947 24.9893 10.0418 25.1351 13.9629L26.223 27.7529C26.2614 28.2383 26.4926 28.6923 26.8704 29.0234C27.2483 29.3546 27.7454 29.538 28.2611 29.5381V29.5361C28.7765 29.536 29.2729 29.3524 29.6507 29.0215C30.0286 28.6904 30.2598 28.2363 30.2982 27.751L31.387 13.9629C31.3977 13.8167 31.3978 13.6696 31.387 13.5234Z" fill="#D7B601"/>
</svg>
